<svg xmlns="http://www.w3.org/2000/svg" xmlns:xlink="http://www.w3.org/1999/xlink" viewBox="0 0 700 348" width="700" height="348"><path d="M 178.000,136.000 C 173.000,136.000 173.500,135.000 169.000,134.000" stroke-width="5.174" stroke="black" fill="none" stroke-linecap="round"></path><path d="M 169.000,134.000 C 165.396,131.113 165.000,132.000 162.000,128.000" stroke-width="4.001" stroke="black" fill="none" stroke-linecap="round"></path><path d="M 162.000,128.000 C 159.138,125.796 159.396,125.613 157.000,123.000" stroke-width="3.981" stroke="black" fill="none" stroke-linecap="round"></path><path d="M 157.000,123.000 C 152.565,117.239 152.638,117.296 149.000,111.000" stroke-width="3.205" stroke="black" fill="none" stroke-linecap="round"></path><path d="M 149.000,111.000 C 147.000,106.500 146.565,106.739 145.000,102.000" stroke-width="3.447" stroke="black" fill="none" stroke-linecap="round"></path><path d="M 145.000,102.000 C 141.902,97.733 143.000,97.500 141.000,93.000" stroke-width="3.526" stroke="black" fill="none" stroke-linecap="round"></path><path d="M 141.000,93.000 C 140.685,86.978 139.902,87.233 141.000,81.000" stroke-width="3.363" stroke="black" fill="none" stroke-linecap="round"></path><path d="M 141.000,81.000 C 140.269,76.885 141.185,77.478 142.000,74.000" stroke-width="3.768" stroke="black" fill="none" stroke-linecap="round"></path><path d="M 142.000,74.000 C 145.655,69.579 144.769,69.385 150.000,66.000" stroke-width="3.486" stroke="black" fill="none" stroke-linecap="round"></path><path d="M 150.000,66.000 C 154.013,61.930 154.155,62.579 159.000,60.000" stroke-width="3.452" stroke="black" fill="none" stroke-linecap="round"></path><path d="M 159.000,60.000 C 169.870,56.343 169.513,55.930 181.000,54.000" stroke-width="2.573" stroke="black" fill="none" stroke-linecap="round"></path><path d="M 181.000,54.000 C 188.965,52.434 188.870,52.343 197.000,52.000" stroke-width="2.785" stroke="black" fill="none" stroke-linecap="round"></path><path d="M 197.000,52.000 C 207.591,50.904 207.465,51.434 218.000,52.000" stroke-width="2.591" stroke="black" fill="none" stroke-linecap="round"></path><path d="M 218.000,52.000 C 236.170,54.246 236.091,53.904 254.000,58.000" stroke-width="2.030" stroke="black" fill="none" stroke-linecap="round"></path><path d="M 254.000,58.000 C 265.343,59.302 264.670,60.246 275.000,64.000" stroke-width="2.314" stroke="black" fill="none" stroke-linecap="round"></path><path d="M 275.000,64.000 C 283.873,69.229 283.843,68.302 291.000,76.000" stroke-width="2.549" stroke="black" fill="none" stroke-linecap="round"></path><path d="M 291.000,76.000 C 294.088,79.169 293.873,78.729 295.000,83.000" stroke-width="3.320" stroke="black" fill="none" stroke-linecap="round"></path><path d="M 295.000,83.000 C 295.708,89.993 296.588,89.669 296.000,97.000" stroke-width="3.207" stroke="black" fill="none" stroke-linecap="round"></path><path d="M 296.000,97.000 C 297.389,102.311 296.208,101.993 296.000,107.000" stroke-width="3.434" stroke="black" fill="none" stroke-linecap="round"></path><path d="M 296.000,107.000 C 292.312,115.664 293.389,115.811 288.000,124.000" stroke-width="2.927" stroke="black" fill="none" stroke-linecap="round"></path><path d="M 288.000,124.000 C 285.179,130.491 284.812,130.164 281.000,136.000" stroke-width="2.985" stroke="black" fill="none" stroke-linecap="round"></path><path d="M 281.000,136.000 C 274.244,145.325 274.179,144.991 266.000,153.000" stroke-width="2.558" stroke="black" fill="none" stroke-linecap="round"></path><path d="M 266.000,153.000 C 259.674,159.248 259.744,158.825 252.000,163.000" stroke-width="2.720" stroke="black" fill="none" stroke-linecap="round"></path><path d="M 252.000,163.000 C 236.861,170.300 237.174,170.248 221.000,175.000" stroke-width="2.027" stroke="black" fill="none" stroke-linecap="round"></path><path d="M 221.000,175.000 C 209.546,177.316 209.861,178.300 198.000,179.000" stroke-width="2.203" stroke="black" fill="none" stroke-linecap="round"></path><path d="M 198.000,179.000 C 185.552,181.372 185.546,180.816 173.000,182.000" stroke-width="2.191" stroke="black" fill="none" stroke-linecap="round"></path><path d="M 173.000,182.000 C 155.500,182.000 155.552,182.872 138.000,182.000" stroke-width="1.874" stroke="black" fill="none" stroke-linecap="round"></path><path d="M 138.000,182.000 C 127.930,182.805 128.000,182.000 118.000,182.000" stroke-width="2.272" stroke="black" fill="none" stroke-linecap="round"></path><path d="M 118.000,182.000 C 109.389,180.974 109.430,181.305 101.000,179.000" stroke-width="2.612" stroke="black" fill="none" stroke-linecap="round"></path><path d="M 101.000,179.000 C 88.896,178.196 92.389,176.974 84.000,174.000" stroke-width="2.652" stroke="black" fill="none" stroke-linecap="round"></path><path d="M 84.000,174.000 C 84.408,169.356 81.896,172.196 87.000,167.000" stroke-width="3.997" stroke="black" fill="none" stroke-linecap="round"></path><path d="M 87.000,167.000 C 90.843,164.792 89.908,164.356 95.000,164.000" stroke-width="3.760" stroke="black" fill="none" stroke-linecap="round"></path><path d="M 95.000,164.000 C 101.509,162.698 101.343,162.792 108.000,163.000" stroke-width="3.337" stroke="black" fill="none" stroke-linecap="round"></path><path d="M 108.000,163.000 C 123.197,163.438 123.009,163.698 138.000,166.000" stroke-width="2.228" stroke="black" fill="none" stroke-linecap="round"></path><path d="M 138.000,166.000 C 149.204,168.401 149.197,167.938 160.000,172.000" stroke-width="2.400" stroke="black" fill="none" stroke-linecap="round"></path><path d="M 160.000,172.000 C 168.745,174.991 168.704,174.901 177.000,179.000" stroke-width="2.604" stroke="black" fill="none" stroke-linecap="round"></path><path d="M 177.000,179.000 C 186.062,183.893 186.245,183.491 195.000,189.000" stroke-width="2.618" stroke="black" fill="none" stroke-linecap="round"></path><path d="M 195.000,189.000 C 199.824,192.328 200.062,191.893 205.000,195.000" stroke-width="2.978" stroke="black" fill="none" stroke-linecap="round"></path><path d="M 205.000,195.000 C 215.261,200.594 215.324,200.328 226.000,205.000" stroke-width="2.463" stroke="black" fill="none" stroke-linecap="round"></path><path d="M 226.000,205.000 C 234.831,208.649 234.761,208.594 244.000,211.000" stroke-width="2.596" stroke="black" fill="none" stroke-linecap="round"></path><path d="M 244.000,211.000 C 254.384,214.228 254.331,213.649 265.000,215.000" stroke-width="2.522" stroke="black" fill="none" stroke-linecap="round"></path><path d="M 265.000,215.000 C 282.029,215.617 281.884,216.228 299.000,215.000" stroke-width="2.031" stroke="black" fill="none" stroke-linecap="round"></path><path d="M 299.000,215.000 C 309.857,215.474 309.529,214.617 320.000,213.000" stroke-width="2.344" stroke="black" fill="none" stroke-linecap="round"></path><path d="M 320.000,213.000 C 330.260,209.495 330.357,210.474 340.000,205.000" stroke-width="2.381" stroke="black" fill="none" stroke-linecap="round"></path><path d="M 340.000,205.000 C 343.512,203.488 343.260,203.495 346.000,201.000" stroke-width="3.262" stroke="black" fill="none" stroke-linecap="round"></path><path d="M 346.000,201.000 C 349.452,196.000 348.012,198.988 349.000,196.000" stroke-width="3.820" stroke="black" fill="none" stroke-linecap="round"></path><path d="M 349.000,196.000 C 342.838,199.644 348.452,196.000 344.000,201.000" stroke-width="4.667" stroke="black" fill="none" stroke-linecap="round"></path><path d="M 344.000,201.000 C 349.821,204.250 345.838,203.144 355.000,203.000" stroke-width="4.787" stroke="black" fill="none" stroke-linecap="round"></path><path d="M 355.000,203.000 C 364.000,198.500 364.321,200.750 373.000,194.000" stroke-width="2.990" stroke="black" fill="none" stroke-linecap="round"></path><path d="M 373.000,194.000 C 379.211,191.351 379.000,191.000 385.000,188.000" stroke-width="3.149" stroke="black" fill="none" stroke-linecap="round"></path><path d="M 385.000,188.000 C 391.404,183.596 388.711,185.851 392.000,183.000" stroke-width="3.538" stroke="black" fill="none" stroke-linecap="round"></path><path d="M 392.000,183.000 C 389.000,184.000 392.404,182.596 387.000,186.000" stroke-width="4.463" stroke="black" fill="none" stroke-linecap="round"></path><path d="M 387.000,186.000 C 384.904,188.288 385.000,188.000 384.000,191.000" stroke-width="4.219" stroke="black" fill="none" stroke-linecap="round"></path><path d="M 384.000,191.000 C 381.865,195.445 382.904,194.288 383.000,198.000" stroke-width="4.044" stroke="black" fill="none" stroke-linecap="round"></path><path d="M 383.000,198.000 C 385.391,199.565 383.865,199.945 388.000,200.000" stroke-width="4.580" stroke="black" fill="none" stroke-linecap="round"></path><path d="M 388.000,200.000 C 391.576,200.571 391.391,200.565 395.000,200.000" stroke-width="4.146" stroke="black" fill="none" stroke-linecap="round"></path><path d="M 395.000,200.000 C 400.598,198.801 400.576,199.071 406.000,197.000" stroke-width="3.568" stroke="black" fill="none" stroke-linecap="round"></path><path d="M 406.000,197.000 C 419.224,190.882 412.598,194.801 419.000,192.000" stroke-width="3.221" stroke="black" fill="none" stroke-linecap="round"></path><path d="M 419.000,192.000 C 411.648,196.561 418.724,193.382 405.000,202.000" stroke-width="4.036" stroke="black" fill="none" stroke-linecap="round"></path><path d="M 405.000,202.000 C 395.807,210.874 395.148,210.061 386.000,219.000" stroke-width="2.518" stroke="black" fill="none" stroke-linecap="round"></path><path d="M 386.000,219.000 C 378.241,225.349 378.307,225.374 370.000,231.000" stroke-width="2.564" stroke="black" fill="none" stroke-linecap="round"></path><path d="M 370.000,231.000 C 361.115,238.219 360.741,237.349 351.000,243.000" stroke-width="2.403" stroke="black" fill="none" stroke-linecap="round"></path><path d="M 351.000,243.000 C 333.463,251.685 333.615,251.219 315.000,257.000" stroke-width="1.819" stroke="black" fill="none" stroke-linecap="round"></path><path d="M 315.000,257.000 C 300.086,260.240 300.463,261.185 285.000,262.000" stroke-width="1.901" stroke="black" fill="none" stroke-linecap="round"></path><path d="M 285.000,262.000 C 270.021,263.634 270.086,263.740 255.000,264.000" stroke-width="1.991" stroke="black" fill="none" stroke-linecap="round"></path><path d="M 255.000,264.000 C 229.000,264.000 229.021,264.634 203.000,264.000" stroke-width="1.576" stroke="black" fill="none" stroke-linecap="round"></path><path d="M 203.000,264.000 C 187.472,263.405 187.500,264.000 172.000,264.000" stroke-width="1.846" stroke="black" fill="none" stroke-linecap="round"></path><path d="M 172.000,264.000 C 155.139,264.276 161.472,264.405 151.000,266.000" stroke-width="2.217" stroke="black" fill="none" stroke-linecap="round"></path><path d="M 151.000,266.000 C 155.315,268.351 149.139,266.776 160.000,269.000" stroke-width="3.602" stroke="black" fill="none" stroke-linecap="round"></path><path d="M 160.000,269.000 C 187.935,272.790 187.815,272.851 216.000,275.000" stroke-width="1.548" stroke="black" fill="none" stroke-linecap="round"></path><path d="M 216.000,275.000 C 251.482,277.396 251.435,277.790 287.000,279.000" stroke-width="1.192" stroke="black" fill="none" stroke-linecap="round"></path><path d="M 287.000,279.000 C 329.006,280.345 328.982,280.896 371.000,282.000" stroke-width="1.125" stroke="black" fill="none" stroke-linecap="round"></path><path d="M 371.000,282.000 C 430.488,284.875 430.506,284.345 490.000,287.000" stroke-width="1.125" stroke="black" fill="none" stroke-linecap="round"></path><path d="M 490.000,287.000 C 514.498,287.690 514.488,287.875 539.000,288.000" stroke-width="1.125" stroke="black" fill="none" stroke-linecap="round"></path><path d="M 539.000,288.000 C 554.000,288.000 553.998,288.190 569.000,288.000" stroke-width="1.583" stroke="black" fill="none" stroke-linecap="round"></path><path d="M 569.000,288.000 C 578.500,288.000 578.500,288.000 588.000,288.000" stroke-width="2.166" stroke="black" fill="none" stroke-linecap="round"></path><path d="M 588.000,288.000 C 598.000,288.000 598.000,288.000 608.000,288.000" stroke-width="2.443" stroke="black" fill="none" stroke-linecap="round"></path><path d="M 608.000,288.000 C 612.532,288.319 612.500,288.000 617.000,288.000" stroke-width="3.193" stroke="black" fill="none" stroke-linecap="round"></path></svg>