<svg xmlns="http://www.w3.org/2000/svg" xmlns:xlink="http://www.w3.org/1999/xlink" viewBox="0 0 700 348" width="700" height="348"><path d="M 23.000,91.000 C 23.000,94.000 23.000,94.000 23.000,97.000" stroke-width="5.279" stroke="black" fill="none" stroke-linecap="round"></path><path d="M 23.000,97.000 C 23.000,100.500 23.000,100.500 23.000,104.000" stroke-width="4.301" stroke="black" fill="none" stroke-linecap="round"></path><path d="M 23.000,104.000 C 23.000,112.000 23.000,112.000 23.000,120.000" stroke-width="3.138" stroke="black" fill="none" stroke-linecap="round"></path><path d="M 23.000,120.000 C 23.000,125.500 23.000,125.500 23.000,131.000" stroke-width="3.327" stroke="black" fill="none" stroke-linecap="round"></path><path d="M 23.000,131.000 C 23.000,139.000 23.000,139.000 23.000,147.000" stroke-width="2.949" stroke="black" fill="none" stroke-linecap="round"></path><path d="M 23.000,147.000 C 23.277,152.017 23.000,152.000 23.000,157.000" stroke-width="3.340" stroke="black" fill="none" stroke-linecap="round"></path><path d="M 23.000,157.000 C 22.251,160.984 22.777,161.017 22.000,165.000" stroke-width="3.659" stroke="black" fill="none" stroke-linecap="round"></path><path d="M 22.000,165.000 C 22.000,169.000 21.751,168.984 22.000,173.000" stroke-width="3.774" stroke="black" fill="none" stroke-linecap="round"></path><path d="M 14.000,133.000 C 17.481,133.765 17.500,133.500 21.000,134.000" stroke-width="5.383" stroke="black" fill="none" stroke-linecap="round"></path><path d="M 21.000,134.000 C 25.024,133.716 24.981,134.265 29.000,134.000" stroke-width="4.189" stroke="black" fill="none" stroke-linecap="round"></path><path d="M 29.000,134.000 C 31.975,134.798 32.024,134.216 35.000,135.000" stroke-width="4.109" stroke="black" fill="none" stroke-linecap="round"></path><path d="M 35.000,135.000 C 39.500,135.000 39.475,135.298 44.000,135.000" stroke-width="3.797" stroke="black" fill="none" stroke-linecap="round"></path><path d="M 55.000,101.000 C 54.736,104.055 54.500,104.000 54.000,107.000" stroke-width="5.175" stroke="black" fill="none" stroke-linecap="round"></path><path d="M 54.000,107.000 C 52.019,111.905 52.736,112.055 51.000,117.000" stroke-width="4.509" stroke="black" fill="none" stroke-linecap="round"></path><path d="M 51.000,117.000 C 50.295,121.990 50.019,121.905 50.000,127.000" stroke-width="3.715" stroke="black" fill="none" stroke-linecap="round"></path><path d="M 50.000,127.000 C 50.000,130.500 49.795,130.490 50.000,134.000" stroke-width="3.900" stroke="black" fill="none" stroke-linecap="round"></path><path d="M 50.000,134.000 C 50.205,137.510 50.000,137.500 50.000,141.000" stroke-width="3.959" stroke="black" fill="none" stroke-linecap="round"></path><path d="M 50.000,141.000 C 49.623,146.016 49.705,146.010 49.000,151.000" stroke-width="3.708" stroke="black" fill="none" stroke-linecap="round"></path><path d="M 49.000,151.000 C 48.500,154.000 48.623,154.016 48.000,157.000" stroke-width="4.002" stroke="black" fill="none" stroke-linecap="round"></path><path d="M 48.000,157.000 C 47.252,159.979 47.500,160.000 47.000,163.000" stroke-width="4.099" stroke="black" fill="none" stroke-linecap="round"></path><path d="M 77.000,137.000 C 73.443,136.541 73.500,137.000 70.000,137.000" stroke-width="5.421" stroke="black" fill="none" stroke-linecap="round"></path><path d="M 70.000,137.000 C 65.659,137.311 65.943,137.541 62.000,139.000" stroke-width="4.982" stroke="black" fill="none" stroke-linecap="round"></path><path d="M 62.000,139.000 C 58.538,140.436 59.159,140.311 57.000,143.000" stroke-width="5.000" stroke="black" fill="none" stroke-linecap="round"></path><path d="M 57.000,143.000 C 56.252,145.979 55.538,145.436 56.000,149.000" stroke-width="5.011" stroke="black" fill="none" stroke-linecap="round"></path><path d="M 56.000,149.000 C 55.239,152.211 55.752,151.979 56.000,155.000" stroke-width="4.816" stroke="black" fill="none" stroke-linecap="round"></path><path d="M 56.000,155.000 C 57.223,157.716 56.739,157.711 59.000,160.000" stroke-width="4.806" stroke="black" fill="none" stroke-linecap="round"></path><path d="M 59.000,160.000 C 60.574,163.029 60.723,162.216 63.000,164.000" stroke-width="4.983" stroke="black" fill="none" stroke-linecap="round"></path><path d="M 63.000,164.000 C 66.324,165.070 65.574,165.029 69.000,164.000" stroke-width="4.855" stroke="black" fill="none" stroke-linecap="round"></path><path d="M 69.000,164.000 C 73.965,161.530 73.824,162.070 78.000,158.000" stroke-width="4.405" stroke="black" fill="none" stroke-linecap="round"></path><path d="M 78.000,158.000 C 82.725,154.550 81.965,154.530 85.000,150.000" stroke-width="4.320" stroke="black" fill="none" stroke-linecap="round"></path><path d="M 85.000,150.000 C 87.115,145.344 86.725,146.550 86.000,142.000" stroke-width="4.459" stroke="black" fill="none" stroke-linecap="round"></path><path d="M 105.000,139.000 C 101.383,136.740 101.500,138.000 98.000,137.000" stroke-width="5.478" stroke="black" fill="none" stroke-linecap="round"></path><path d="M 98.000,137.000 C 94.143,137.643 94.883,137.240 92.000,140.000" stroke-width="4.908" stroke="black" fill="none" stroke-linecap="round"></path><path d="M 92.000,140.000 C 89.592,143.860 89.143,143.143 88.000,148.000" stroke-width="4.600" stroke="black" fill="none" stroke-linecap="round"></path><path d="M 88.000,148.000 C 87.573,150.516 87.092,150.360 87.000,153.000" stroke-width="4.361" stroke="black" fill="none" stroke-linecap="round"></path><path d="M 87.000,153.000 C 85.309,156.984 86.073,157.016 85.000,161.000" stroke-width="4.458" stroke="black" fill="none" stroke-linecap="round"></path><path d="M 85.000,161.000 C 84.500,164.500 84.809,163.484 86.000,166.000" stroke-width="4.970" stroke="black" fill="none" stroke-linecap="round"></path><path d="M 86.000,166.000 C 88.722,167.621 87.500,167.500 91.000,167.000" stroke-width="5.070" stroke="black" fill="none" stroke-linecap="round"></path><path d="M 91.000,167.000 C 94.373,165.425 94.222,166.121 97.000,163.000" stroke-width="4.230" stroke="black" fill="none" stroke-linecap="round"></path><path d="M 97.000,163.000 C 101.590,159.552 100.873,159.425 104.000,155.000" stroke-width="4.269" stroke="black" fill="none" stroke-linecap="round"></path><path d="M 104.000,155.000 C 105.096,150.519 106.090,151.052 106.000,146.000" stroke-width="4.357" stroke="black" fill="none" stroke-linecap="round"></path><path d="M 106.000,146.000 C 107.158,138.893 106.596,143.019 107.000,140.000" stroke-width="4.609" stroke="black" fill="none" stroke-linecap="round"></path><path d="M 107.000,140.000 C 106.081,146.514 106.658,142.393 105.000,153.000" stroke-width="4.948" stroke="black" fill="none" stroke-linecap="round"></path><path d="M 105.000,153.000 C 104.230,155.473 104.581,155.514 104.000,158.000" stroke-width="4.496" stroke="black" fill="none" stroke-linecap="round"></path><path d="M 104.000,158.000 C 103.752,161.021 103.730,160.973 104.000,164.000" stroke-width="4.254" stroke="black" fill="none" stroke-linecap="round"></path><path d="M 104.000,164.000 C 104.748,170.000 104.252,167.021 105.000,170.000" stroke-width="4.589" stroke="black" fill="none" stroke-linecap="round"></path><path d="M 93.000,112.000 C 98.561,115.920 98.500,116.000 104.000,120.000" stroke-width="5.033" stroke="black" fill="none" stroke-linecap="round"></path><path d="M 104.000,120.000 C 106.557,121.932 106.561,121.920 109.000,124.000" stroke-width="4.331" stroke="black" fill="none" stroke-linecap="round"></path><path d="M 109.000,124.000 C 113.084,127.410 113.057,127.432 117.000,131.000" stroke-width="3.618" stroke="black" fill="none" stroke-linecap="round"></path><path d="M 117.000,131.000 C 118.751,133.313 119.084,132.910 121.000,135.000" stroke-width="4.020" stroke="black" fill="none" stroke-linecap="round"></path><path d="M 121.000,144.000 C 121.000,148.500 121.000,148.500 121.000,153.000" stroke-width="5.318" stroke="black" fill="none" stroke-linecap="round"></path><path d="M 121.000,153.000 C 121.000,156.000 121.000,156.000 121.000,159.000" stroke-width="4.395" stroke="black" fill="none" stroke-linecap="round"></path><path d="M 121.000,159.000 C 121.929,166.000 121.000,162.500 121.000,166.000" stroke-width="4.564" stroke="black" fill="none" stroke-linecap="round"></path><path d="M 121.000,166.000 C 118.147,162.727 119.929,166.000 117.000,159.000" stroke-width="5.022" stroke="black" fill="none" stroke-linecap="round"></path><path d="M 117.000,159.000 C 116.606,155.957 116.147,156.227 117.000,153.000" stroke-width="4.819" stroke="black" fill="none" stroke-linecap="round"></path><path d="M 117.000,153.000 C 117.317,148.208 117.606,148.457 119.000,144.000" stroke-width="4.493" stroke="black" fill="none" stroke-linecap="round"></path><path d="M 119.000,144.000 C 120.364,139.464 120.317,140.708 123.000,138.000" stroke-width="4.579" stroke="black" fill="none" stroke-linecap="round"></path><path d="M 123.000,138.000 C 126.396,137.396 124.864,136.964 128.000,139.000" stroke-width="5.065" stroke="black" fill="none" stroke-linecap="round"></path><path d="M 128.000,139.000 C 129.802,142.406 130.396,141.396 131.000,146.000" stroke-width="4.745" stroke="black" fill="none" stroke-linecap="round"></path><path d="M 131.000,146.000 C 131.770,148.473 131.802,148.406 132.000,151.000" stroke-width="4.445" stroke="black" fill="none" stroke-linecap="round"></path><path d="M 132.000,151.000 C 132.000,154.000 132.270,153.973 132.000,157.000" stroke-width="4.191" stroke="black" fill="none" stroke-linecap="round"></path><path d="M 132.000,157.000 C 132.305,161.030 132.000,161.000 132.000,165.000" stroke-width="4.421" stroke="black" fill="none" stroke-linecap="round"></path><path d="M 132.000,165.000 C 131.000,167.500 131.805,167.530 131.000,170.000" stroke-width="4.311" stroke="black" fill="none" stroke-linecap="round"></path><path d="M 131.000,170.000 C 130.233,174.839 131.000,172.500 132.000,175.000" stroke-width="4.963" stroke="black" fill="none" stroke-linecap="round"></path><path d="M 171.000,147.000 C 168.508,146.000 168.500,146.500 166.000,146.000" stroke-width="5.494" stroke="black" fill="none" stroke-linecap="round"></path><path d="M 166.000,146.000 C 162.584,145.609 163.008,146.000 160.000,147.000" stroke-width="4.967" stroke="black" fill="none" stroke-linecap="round"></path><path d="M 160.000,147.000 C 156.086,149.633 156.084,149.109 153.000,153.000" stroke-width="4.554" stroke="black" fill="none" stroke-linecap="round"></path><path d="M 153.000,153.000 C 150.015,155.702 150.586,155.633 149.000,159.000" stroke-width="4.801" stroke="black" fill="none" stroke-linecap="round"></path><path d="M 149.000,159.000 C 147.284,163.794 148.015,162.202 149.000,166.000" stroke-width="4.910" stroke="black" fill="none" stroke-linecap="round"></path><path d="M 149.000,166.000 C 152.449,167.746 150.784,168.294 156.000,168.000" stroke-width="4.919" stroke="black" fill="none" stroke-linecap="round"></path><path d="M 156.000,168.000 C 159.712,168.096 159.449,168.246 163.000,167.000" stroke-width="4.216" stroke="black" fill="none" stroke-linecap="round"></path><path d="M 163.000,167.000 C 165.740,165.808 165.712,166.096 168.000,164.000" stroke-width="4.239" stroke="black" fill="none" stroke-linecap="round"></path><path d="M 168.000,164.000 C 171.305,162.013 170.740,161.808 173.000,159.000" stroke-width="4.049" stroke="black" fill="none" stroke-linecap="round"></path><path d="M 173.000,159.000 C 175.259,153.572 175.805,154.013 177.000,148.000" stroke-width="4.121" stroke="black" fill="none" stroke-linecap="round"></path><path d="M 177.000,148.000 C 178.688,142.036 177.759,145.572 178.000,143.000" stroke-width="4.632" stroke="black" fill="none" stroke-linecap="round"></path><path d="M 178.000,143.000 C 175.137,149.075 176.188,145.536 172.000,155.000" stroke-width="4.754" stroke="black" fill="none" stroke-linecap="round"></path><path d="M 172.000,155.000 C 170.302,157.397 170.637,157.575 169.000,160.000" stroke-width="4.343" stroke="black" fill="none" stroke-linecap="round"></path><path d="M 169.000,160.000 C 167.198,164.603 166.802,164.397 165.000,169.000" stroke-width="3.765" stroke="black" fill="none" stroke-linecap="round"></path><path d="M 165.000,169.000 C 163.112,171.332 163.698,171.603 162.000,174.000" stroke-width="4.091" stroke="black" fill="none" stroke-linecap="round"></path><path d="M 162.000,174.000 C 161.609,177.782 160.612,177.332 160.000,181.000" stroke-width="3.983" stroke="black" fill="none" stroke-linecap="round"></path><path d="M 160.000,181.000 C 157.141,185.603 157.609,185.782 154.000,190.000" stroke-width="4.178" stroke="black" fill="none" stroke-linecap="round"></path><path d="M 154.000,190.000 C 152.049,195.410 152.141,192.603 150.000,195.000" stroke-width="4.579" stroke="black" fill="none" stroke-linecap="round"></path><path d="M 150.000,195.000 C 145.817,191.938 147.049,194.410 144.000,188.000" stroke-width="4.975" stroke="black" fill="none" stroke-linecap="round"></path><path d="M 221.000,113.000 C 220.583,119.667 220.000,119.500 219.000,126.000" stroke-width="4.806" stroke="black" fill="none" stroke-linecap="round"></path><path d="M 219.000,126.000 C 216.972,129.357 218.083,129.667 216.000,133.000" stroke-width="4.122" stroke="black" fill="none" stroke-linecap="round"></path><path d="M 216.000,133.000 C 215.628,137.020 214.972,136.857 215.000,141.000" stroke-width="3.902" stroke="black" fill="none" stroke-linecap="round"></path><path d="M 215.000,141.000 C 213.971,146.495 214.128,146.520 213.000,152.000" stroke-width="3.469" stroke="black" fill="none" stroke-linecap="round"></path><path d="M 213.000,152.000 C 212.462,154.994 212.471,154.995 212.000,158.000" stroke-width="3.915" stroke="black" fill="none" stroke-linecap="round"></path><path d="M 212.000,158.000 C 212.026,164.743 211.462,161.494 211.000,165.000" stroke-width="4.406" stroke="black" fill="none" stroke-linecap="round"></path><path d="M 192.000,115.000 C 197.000,114.000 197.000,114.500 202.000,114.000" stroke-width="5.160" stroke="black" fill="none" stroke-linecap="round"></path><path d="M 202.000,114.000 C 207.033,114.264 207.000,114.000 212.000,115.000" stroke-width="3.835" stroke="black" fill="none" stroke-linecap="round"></path><path d="M 212.000,115.000 C 220.513,116.428 220.533,116.264 229.000,118.000" stroke-width="3.039" stroke="black" fill="none" stroke-linecap="round"></path><path d="M 229.000,118.000 C 233.968,119.205 234.013,118.928 239.000,120.000" stroke-width="3.405" stroke="black" fill="none" stroke-linecap="round"></path><path d="M 239.000,120.000 C 243.488,120.718 243.468,120.705 248.000,121.000" stroke-width="3.586" stroke="black" fill="none" stroke-linecap="round"></path><path d="M 248.000,121.000 C 251.529,121.289 251.488,121.218 255.000,121.000" stroke-width="4.279" stroke="black" fill="none" stroke-linecap="round"></path><path d="M 258.000,115.000 C 256.500,119.500 256.500,119.500 255.000,124.000" stroke-width="5.230" stroke="black" fill="none" stroke-linecap="round"></path><path d="M 255.000,124.000 C 253.219,128.430 253.500,128.500 252.000,133.000" stroke-width="3.980" stroke="black" fill="none" stroke-linecap="round"></path><path d="M 252.000,133.000 C 251.735,136.058 251.219,135.930 251.000,139.000" stroke-width="4.134" stroke="black" fill="none" stroke-linecap="round"></path><path d="M 251.000,139.000 C 250.000,142.000 250.235,142.058 249.000,145.000" stroke-width="4.062" stroke="black" fill="none" stroke-linecap="round"></path><path d="M 249.000,145.000 C 247.301,149.447 247.500,149.500 246.000,154.000" stroke-width="3.789" stroke="black" fill="none" stroke-linecap="round"></path><path d="M 246.000,154.000 C 245.864,156.625 245.301,156.447 245.000,159.000" stroke-width="4.150" stroke="black" fill="none" stroke-linecap="round"></path><path d="M 245.000,159.000 C 241.562,165.219 243.864,162.125 242.000,165.000" stroke-width="4.519" stroke="black" fill="none" stroke-linecap="round"></path><path d="M 242.000,165.000 C 245.116,161.767 242.562,164.719 247.000,158.000" stroke-width="5.041" stroke="black" fill="none" stroke-linecap="round"></path><path d="M 247.000,158.000 C 246.815,155.172 248.116,155.767 248.000,153.000" stroke-width="4.519" stroke="black" fill="none" stroke-linecap="round"></path><path d="M 248.000,153.000 C 249.838,148.946 249.815,149.672 253.000,147.000" stroke-width="4.540" stroke="black" fill="none" stroke-linecap="round"></path><path d="M 253.000,147.000 C 258.577,143.654 256.338,144.946 261.000,145.000" stroke-width="4.863" stroke="black" fill="none" stroke-linecap="round"></path><path d="M 261.000,145.000 C 261.730,148.484 263.077,146.154 262.000,152.000" stroke-width="5.113" stroke="black" fill="none" stroke-linecap="round"></path><path d="M 262.000,152.000 C 262.000,155.000 262.230,154.984 262.000,158.000" stroke-width="4.352" stroke="black" fill="none" stroke-linecap="round"></path><path d="M 262.000,158.000 C 262.230,161.016 262.000,161.000 262.000,164.000" stroke-width="4.644" stroke="black" fill="none" stroke-linecap="round"></path><path d="M 305.000,156.000 C 300.675,154.450 301.000,154.000 297.000,152.000" stroke-width="5.212" stroke="black" fill="none" stroke-linecap="round"></path><path d="M 297.000,152.000 C 295.444,149.111 294.675,150.450 293.000,148.000" stroke-width="4.902" stroke="black" fill="none" stroke-linecap="round"></path><path d="M 293.000,148.000 C 289.472,146.783 289.944,146.611 286.000,147.000" stroke-width="4.912" stroke="black" fill="none" stroke-linecap="round"></path><path d="M 286.000,147.000 C 281.139,147.189 281.472,147.283 277.000,149.000" stroke-width="4.775" stroke="black" fill="none" stroke-linecap="round"></path><path d="M 277.000,149.000 C 272.839,150.903 273.139,150.689 270.000,154.000" stroke-width="4.551" stroke="black" fill="none" stroke-linecap="round"></path><path d="M 270.000,154.000 C 266.919,157.325 267.339,156.903 266.000,161.000" stroke-width="4.510" stroke="black" fill="none" stroke-linecap="round"></path><path d="M 266.000,161.000 C 265.192,165.096 265.419,163.325 267.000,166.000" stroke-width="4.904" stroke="black" fill="none" stroke-linecap="round"></path><path d="M 267.000,166.000 C 271.535,166.425 270.192,167.596 276.000,166.000" stroke-width="4.786" stroke="black" fill="none" stroke-linecap="round"></path><path d="M 276.000,166.000 C 282.624,166.213 282.035,165.425 288.000,164.000" stroke-width="4.292" stroke="black" fill="none" stroke-linecap="round"></path><path d="M 288.000,164.000 C 290.772,161.723 291.124,162.713 293.000,159.000" stroke-width="4.525" stroke="black" fill="none" stroke-linecap="round"></path><path d="M 293.000,159.000 C 296.110,152.333 295.272,156.223 297.000,153.000" stroke-width="4.605" stroke="black" fill="none" stroke-linecap="round"></path><path d="M 297.000,153.000 C 297.522,157.564 298.110,153.833 297.000,162.000" stroke-width="5.107" stroke="black" fill="none" stroke-linecap="round"></path><path d="M 322.000,145.000 C 320.765,147.942 321.000,148.000 320.000,151.000" stroke-width="5.052" stroke="black" fill="none" stroke-linecap="round"></path><path d="M 320.000,151.000 C 319.796,154.083 319.265,153.942 319.000,157.000" stroke-width="4.852" stroke="black" fill="none" stroke-linecap="round"></path><path d="M 319.000,157.000 C 317.770,159.432 318.296,159.583 317.000,162.000" stroke-width="4.431" stroke="black" fill="none" stroke-linecap="round"></path><path d="M 317.000,162.000 C 316.670,164.545 316.270,164.432 316.000,167.000" stroke-width="4.358" stroke="black" fill="none" stroke-linecap="round"></path><path d="M 316.000,167.000 C 315.213,170.088 315.170,170.045 314.000,173.000" stroke-width="4.124" stroke="black" fill="none" stroke-linecap="round"></path><path d="M 314.000,173.000 C 311.224,179.449 312.713,176.088 311.000,179.000" stroke-width="4.479" stroke="black" fill="none" stroke-linecap="round"></path><path d="M 311.000,179.000 C 312.073,175.016 310.724,178.449 313.000,171.000" stroke-width="5.042" stroke="black" fill="none" stroke-linecap="round"></path><path d="M 313.000,171.000 C 313.067,168.333 313.573,168.516 314.000,166.000" stroke-width="4.519" stroke="black" fill="none" stroke-linecap="round"></path><path d="M 314.000,166.000 C 315.435,163.459 315.067,163.333 317.000,161.000" stroke-width="4.283" stroke="black" fill="none" stroke-linecap="round"></path><path d="M 317.000,161.000 C 318.881,157.913 318.935,157.959 321.000,155.000" stroke-width="4.044" stroke="black" fill="none" stroke-linecap="round"></path><path d="M 321.000,155.000 C 322.750,150.250 322.881,152.413 325.000,150.000" stroke-width="4.674" stroke="black" fill="none" stroke-linecap="round"></path><path d="M 325.000,150.000 C 328.470,151.377 327.250,149.750 330.000,154.000" stroke-width="5.078" stroke="black" fill="none" stroke-linecap="round"></path><path d="M 330.000,154.000 C 331.548,157.933 331.970,157.377 332.000,162.000" stroke-width="4.659" stroke="black" fill="none" stroke-linecap="round"></path><path d="M 332.000,162.000 C 332.548,167.067 332.548,166.933 332.000,172.000" stroke-width="4.414" stroke="black" fill="none" stroke-linecap="round"></path><path d="M 332.000,172.000 C 330.927,175.984 331.548,176.067 330.000,180.000" stroke-width="4.474" stroke="black" fill="none" stroke-linecap="round"></path><path d="M 330.000,180.000 C 328.757,185.000 329.427,182.484 329.000,185.000" stroke-width="4.770" stroke="black" fill="none" stroke-linecap="round"></path><path d="M 350.000,119.000 C 349.500,121.500 349.500,121.500 349.000,124.000" stroke-width="5.344" stroke="black" fill="none" stroke-linecap="round"></path><path d="M 349.000,124.000 C 347.886,128.980 348.000,129.000 347.000,134.000" stroke-width="3.848" stroke="black" fill="none" stroke-linecap="round"></path><path d="M 347.000,134.000 C 346.538,137.506 346.386,137.480 346.000,141.000" stroke-width="3.885" stroke="black" fill="none" stroke-linecap="round"></path><path d="M 346.000,141.000 C 345.560,144.011 345.538,144.006 345.000,147.000" stroke-width="4.062" stroke="black" fill="none" stroke-linecap="round"></path><path d="M 345.000,147.000 C 344.167,152.040 344.060,152.011 343.000,157.000" stroke-width="3.602" stroke="black" fill="none" stroke-linecap="round"></path><path d="M 343.000,157.000 C 341.882,160.471 342.167,160.540 341.000,164.000" stroke-width="3.831" stroke="black" fill="none" stroke-linecap="round"></path><path d="M 341.000,164.000 C 340.456,166.492 340.382,166.471 340.000,169.000" stroke-width="4.165" stroke="black" fill="none" stroke-linecap="round"></path><path d="M 340.000,169.000 C 338.813,175.747 339.456,171.992 339.000,175.000" stroke-width="4.102" stroke="black" fill="none" stroke-linecap="round"></path><path d="M 339.000,175.000 C 339.325,169.747 339.313,173.747 341.000,165.000" stroke-width="4.923" stroke="black" fill="none" stroke-linecap="round"></path><path d="M 341.000,165.000 C 342.492,161.065 342.325,161.247 345.000,158.000" stroke-width="4.653" stroke="black" fill="none" stroke-linecap="round"></path><path d="M 345.000,158.000 C 347.284,154.543 346.992,155.565 350.000,154.000" stroke-width="4.709" stroke="black" fill="none" stroke-linecap="round"></path><path d="M 350.000,154.000 C 353.799,153.998 352.284,153.543 355.000,156.000" stroke-width="5.136" stroke="black" fill="none" stroke-linecap="round"></path><path d="M 355.000,156.000 C 356.209,160.020 356.799,158.998 356.000,164.000" stroke-width="4.947" stroke="black" fill="none" stroke-linecap="round"></path><path d="M 356.000,164.000 C 355.030,169.506 355.709,169.520 354.000,175.000" stroke-width="4.448" stroke="black" fill="none" stroke-linecap="round"></path><path d="M 354.000,175.000 C 353.747,177.571 353.530,177.506 353.000,180.000" stroke-width="4.363" stroke="black" fill="none" stroke-linecap="round"></path><path d="M 353.000,180.000 C 351.253,183.929 351.747,184.071 350.000,188.000" stroke-width="4.416" stroke="black" fill="none" stroke-linecap="round"></path><path d="M 297.000,156.000 C 297.000,159.500 297.000,159.500 297.000,163.000" stroke-width="5.421" stroke="black" fill="none" stroke-linecap="round"></path><path d="M 297.000,163.000 C 297.000,166.000 297.000,166.000 297.000,169.000" stroke-width="4.957" stroke="black" fill="none" stroke-linecap="round"></path><path d="M 431.000,122.000 C 427.319,121.234 427.500,122.000 424.000,122.000" stroke-width="5.435" stroke="black" fill="none" stroke-linecap="round"></path><path d="M 424.000,122.000 C 420.848,123.247 420.819,122.734 418.000,125.000" stroke-width="4.861" stroke="black" fill="none" stroke-linecap="round"></path><path d="M 418.000,125.000 C 413.809,126.910 414.348,127.247 411.000,130.000" stroke-width="4.837" stroke="black" fill="none" stroke-linecap="round"></path><path d="M 411.000,130.000 C 409.053,132.841 408.809,132.410 408.000,136.000" stroke-width="4.739" stroke="black" fill="none" stroke-linecap="round"></path><path d="M 408.000,136.000 C 407.186,140.552 406.553,140.341 406.000,145.000" stroke-width="4.534" stroke="black" fill="none" stroke-linecap="round"></path><path d="M 406.000,145.000 C 404.513,147.921 405.186,148.052 404.000,151.000" stroke-width="4.663" stroke="black" fill="none" stroke-linecap="round"></path><path d="M 404.000,151.000 C 403.787,154.013 403.513,153.921 404.000,157.000" stroke-width="4.247" stroke="black" fill="none" stroke-linecap="round"></path><path d="M 404.000,157.000 C 404.300,161.035 404.287,161.013 405.000,165.000" stroke-width="4.469" stroke="black" fill="none" stroke-linecap="round"></path><path d="M 405.000,165.000 C 405.230,169.869 405.800,169.535 407.000,174.000" stroke-width="4.397" stroke="black" fill="none" stroke-linecap="round"></path><path d="M 407.000,174.000 C 408.565,177.008 408.230,176.869 411.000,179.000" stroke-width="4.612" stroke="black" fill="none" stroke-linecap="round"></path><path d="M 411.000,179.000 C 414.232,181.823 414.065,181.508 418.000,183.000" stroke-width="4.584" stroke="black" fill="none" stroke-linecap="round"></path><path d="M 418.000,183.000 C 422.522,184.000 422.232,184.323 427.000,184.000" stroke-width="4.442" stroke="black" fill="none" stroke-linecap="round"></path><path d="M 427.000,184.000 C 429.625,183.864 429.522,184.000 432.000,183.000" stroke-width="4.317" stroke="black" fill="none" stroke-linecap="round"></path><path d="M 432.000,183.000 C 435.190,181.807 435.125,181.864 438.000,180.000" stroke-width="4.115" stroke="black" fill="none" stroke-linecap="round"></path><path d="M 438.000,180.000 C 443.034,177.775 442.190,177.307 446.000,174.000" stroke-width="4.293" stroke="black" fill="none" stroke-linecap="round"></path><path d="M 446.000,174.000 C 447.906,170.104 448.534,170.775 449.000,166.000" stroke-width="4.414" stroke="black" fill="none" stroke-linecap="round"></path><path d="M 449.000,166.000 C 449.730,162.516 449.906,162.604 450.000,159.000" stroke-width="4.565" stroke="black" fill="none" stroke-linecap="round"></path><path d="M 450.000,159.000 C 450.547,155.920 450.230,156.016 450.000,153.000" stroke-width="4.272" stroke="black" fill="none" stroke-linecap="round"></path><path d="M 450.000,153.000 C 448.925,147.812 449.047,147.920 447.000,143.000" stroke-width="4.273" stroke="black" fill="none" stroke-linecap="round"></path><path d="M 447.000,143.000 C 445.777,140.284 445.925,140.312 444.000,138.000" stroke-width="4.616" stroke="black" fill="none" stroke-linecap="round"></path><path d="M 444.000,138.000 C 442.000,136.000 442.277,135.784 440.000,134.000" stroke-width="4.759" stroke="black" fill="none" stroke-linecap="round"></path><path d="M 440.000,134.000 C 437.192,131.740 437.500,131.500 435.000,129.000" stroke-width="4.876" stroke="black" fill="none" stroke-linecap="round"></path><path d="M 436.000,158.000 C 438.000,160.000 438.000,160.000 440.000,162.000" stroke-width="5.241" stroke="black" fill="none" stroke-linecap="round"></path><path d="M 440.000,162.000 C 441.855,164.162 442.000,164.000 444.000,166.000" stroke-width="4.482" stroke="black" fill="none" stroke-linecap="round"></path><path d="M 444.000,166.000 C 448.846,170.221 448.855,170.162 454.000,174.000" stroke-width="4.172" stroke="black" fill="none" stroke-linecap="round"></path><path d="M 454.000,174.000 C 456.617,175.332 456.346,175.721 459.000,177.000" stroke-width="4.226" stroke="black" fill="none" stroke-linecap="round"></path><path d="M 467.000,144.000 C 467.000,147.000 467.000,147.000 467.000,150.000" stroke-width="5.428" stroke="black" fill="none" stroke-linecap="round"></path><path d="M 467.000,150.000 C 467.264,154.516 467.000,154.500 467.000,159.000" stroke-width="4.681" stroke="black" fill="none" stroke-linecap="round"></path><path d="M 467.000,159.000 C 466.613,163.018 466.764,163.016 466.000,167.000" stroke-width="4.586" stroke="black" fill="none" stroke-linecap="round"></path><path d="M 466.000,167.000 C 465.000,169.492 465.613,169.518 465.000,172.000" stroke-width="4.783" stroke="black" fill="none" stroke-linecap="round"></path><path d="M 465.000,172.000 C 464.705,175.409 465.000,174.992 466.000,178.000" stroke-width="4.950" stroke="black" fill="none" stroke-linecap="round"></path><path d="M 466.000,178.000 C 467.540,181.824 467.205,180.409 470.000,182.000" stroke-width="5.125" stroke="black" fill="none" stroke-linecap="round"></path><path d="M 470.000,182.000 C 475.752,181.655 474.540,182.324 480.000,179.000" stroke-width="4.786" stroke="black" fill="none" stroke-linecap="round"></path><path d="M 480.000,179.000 C 483.694,175.920 483.752,176.655 486.000,172.000" stroke-width="4.527" stroke="black" fill="none" stroke-linecap="round"></path><path d="M 486.000,172.000 C 488.528,167.152 488.694,167.420 490.000,162.000" stroke-width="4.323" stroke="black" fill="none" stroke-linecap="round"></path><path d="M 490.000,162.000 C 491.676,152.619 491.528,156.652 492.000,151.000" stroke-width="4.260" stroke="black" fill="none" stroke-linecap="round"></path><path d="M 492.000,151.000 C 491.696,154.043 492.176,150.119 491.000,157.000" stroke-width="5.002" stroke="black" fill="none" stroke-linecap="round"></path><path d="M 491.000,157.000 C 488.799,162.406 489.696,162.543 488.000,168.000" stroke-width="4.422" stroke="black" fill="none" stroke-linecap="round"></path><path d="M 525.000,157.000 C 522.692,154.979 522.500,155.500 520.000,154.000" stroke-width="5.467" stroke="black" fill="none" stroke-linecap="round"></path><path d="M 520.000,154.000 C 517.022,153.232 517.192,152.979 514.000,153.000" stroke-width="4.927" stroke="black" fill="none" stroke-linecap="round"></path><path d="M 514.000,153.000 C 510.072,151.818 510.522,152.732 507.000,153.000" stroke-width="4.740" stroke="black" fill="none" stroke-linecap="round"></path><path d="M 507.000,153.000 C 503.070,154.895 503.572,154.318 501.000,158.000" stroke-width="4.623" stroke="black" fill="none" stroke-linecap="round"></path><path d="M 501.000,158.000 C 499.817,161.459 499.070,160.895 499.000,165.000" stroke-width="4.613" stroke="black" fill="none" stroke-linecap="round"></path><path d="M 499.000,165.000 C 498.252,167.979 498.317,167.959 498.000,171.000" stroke-width="4.708" stroke="black" fill="none" stroke-linecap="round"></path><path d="M 498.000,171.000 C 497.033,174.339 497.752,173.979 498.000,177.000" stroke-width="4.744" stroke="black" fill="none" stroke-linecap="round"></path><path d="M 498.000,177.000 C 499.485,180.239 499.033,179.839 502.000,182.000" stroke-width="4.903" stroke="black" fill="none" stroke-linecap="round"></path><path d="M 502.000,182.000 C 504.955,183.170 504.485,183.739 508.000,184.000" stroke-width="4.805" stroke="black" fill="none" stroke-linecap="round"></path><path d="M 508.000,184.000 C 510.473,184.770 510.455,184.670 513.000,185.000" stroke-width="4.838" stroke="black" fill="none" stroke-linecap="round"></path><path d="M 513.000,185.000 C 516.892,186.318 515.973,185.270 519.000,185.000" stroke-width="4.980" stroke="black" fill="none" stroke-linecap="round"></path><path d="M 519.000,185.000 C 520.150,182.551 520.892,183.818 521.000,180.000" stroke-width="5.041" stroke="black" fill="none" stroke-linecap="round"></path><path d="M 521.000,180.000 C 522.000,176.500 522.150,176.551 523.000,173.000" stroke-width="4.730" stroke="black" fill="none" stroke-linecap="round"></path><path d="M 523.000,173.000 C 525.000,166.000 524.000,169.500 525.000,166.000" stroke-width="4.662" stroke="black" fill="none" stroke-linecap="round"></path><path d="M 525.000,166.000 C 523.630,169.429 525.000,166.000 523.000,173.000" stroke-width="5.155" stroke="black" fill="none" stroke-linecap="round"></path><path d="M 523.000,173.000 C 522.623,178.016 522.130,177.929 522.000,183.000" stroke-width="4.510" stroke="black" fill="none" stroke-linecap="round"></path><path d="M 537.000,158.000 C 535.517,160.901 536.000,161.000 535.000,164.000" stroke-width="5.271" stroke="black" fill="none" stroke-linecap="round"></path><path d="M 535.000,164.000 C 534.286,169.991 534.017,169.901 534.000,176.000" stroke-width="4.461" stroke="black" fill="none" stroke-linecap="round"></path><path d="M 534.000,176.000 C 533.447,184.447 533.786,180.491 534.000,185.000" stroke-width="4.452" stroke="black" fill="none" stroke-linecap="round"></path><path d="M 534.000,185.000 C 534.654,181.365 534.447,185.447 536.000,178.000" stroke-width="5.067" stroke="black" fill="none" stroke-linecap="round"></path><path d="M 536.000,178.000 C 538.000,174.000 537.654,173.865 540.000,170.000" stroke-width="4.600" stroke="black" fill="none" stroke-linecap="round"></path><path d="M 540.000,170.000 C 541.377,165.497 542.000,166.000 544.000,162.000" stroke-width="4.455" stroke="black" fill="none" stroke-linecap="round"></path><path d="M 544.000,162.000 C 546.284,158.543 545.877,159.497 549.000,158.000" stroke-width="4.661" stroke="black" fill="none" stroke-linecap="round"></path><path d="M 549.000,158.000 C 552.309,158.121 551.284,157.543 554.000,160.000" stroke-width="5.069" stroke="black" fill="none" stroke-linecap="round"></path><path d="M 554.000,160.000 C 556.944,163.777 556.809,163.121 558.000,168.000" stroke-width="4.857" stroke="black" fill="none" stroke-linecap="round"></path><path d="M 558.000,168.000 C 558.000,172.000 558.944,171.777 558.000,176.000" stroke-width="4.641" stroke="black" fill="none" stroke-linecap="round"></path><path d="M 558.000,176.000 C 558.000,179.000 558.000,179.000 558.000,182.000" stroke-width="4.337" stroke="black" fill="none" stroke-linecap="round"></path><path d="M 558.000,182.000 C 558.000,185.500 558.000,185.500 558.000,189.000" stroke-width="4.561" stroke="black" fill="none" stroke-linecap="round"></path><path d="M 595.000,170.000 C 597.095,166.408 595.500,167.000 596.000,164.000" stroke-width="5.246" stroke="black" fill="none" stroke-linecap="round"></path><path d="M 596.000,164.000 C 593.411,160.575 594.595,160.908 590.000,159.000" stroke-width="5.139" stroke="black" fill="none" stroke-linecap="round"></path><path d="M 590.000,159.000 C 586.370,157.519 586.911,157.575 583.000,158.000" stroke-width="5.006" stroke="black" fill="none" stroke-linecap="round"></path><path d="M 583.000,158.000 C 578.962,158.778 579.370,158.519 576.000,161.000" stroke-width="4.673" stroke="black" fill="none" stroke-linecap="round"></path><path d="M 576.000,161.000 C 573.152,163.772 572.962,163.278 571.000,167.000" stroke-width="4.566" stroke="black" fill="none" stroke-linecap="round"></path><path d="M 571.000,167.000 C 568.974,169.836 569.152,169.772 568.000,173.000" stroke-width="4.180" stroke="black" fill="none" stroke-linecap="round"></path><path d="M 568.000,173.000 C 566.716,176.594 566.974,176.336 567.000,180.000" stroke-width="4.502" stroke="black" fill="none" stroke-linecap="round"></path><path d="M 567.000,180.000 C 567.202,183.459 567.216,182.594 569.000,185.000" stroke-width="4.769" stroke="black" fill="none" stroke-linecap="round"></path><path d="M 569.000,185.000 C 571.546,186.409 570.702,186.459 574.000,186.000" stroke-width="4.854" stroke="black" fill="none" stroke-linecap="round"></path><path d="M 574.000,186.000 C 580.881,184.720 580.546,184.909 587.000,182.000" stroke-width="4.262" stroke="black" fill="none" stroke-linecap="round"></path><path d="M 587.000,182.000 C 589.413,179.881 589.881,180.720 592.000,178.000" stroke-width="4.137" stroke="black" fill="none" stroke-linecap="round"></path><path d="M 592.000,178.000 C 595.360,176.400 594.913,175.881 598.000,174.000" stroke-width="3.952" stroke="black" fill="none" stroke-linecap="round"></path><path d="M 598.000,174.000 C 603.407,167.390 600.860,171.400 603.000,168.000" stroke-width="4.368" stroke="black" fill="none" stroke-linecap="round"></path><path d="M 603.000,168.000 C 599.148,172.278 602.407,168.890 596.000,177.000" stroke-width="4.890" stroke="black" fill="none" stroke-linecap="round"></path><path d="M 596.000,177.000 C 594.605,180.058 594.148,179.778 593.000,183.000" stroke-width="4.202" stroke="black" fill="none" stroke-linecap="round"></path><path d="M 593.000,183.000 C 591.469,185.482 591.605,185.558 590.000,188.000" stroke-width="4.193" stroke="black" fill="none" stroke-linecap="round"></path><path d="M 590.000,188.000 C 588.333,191.734 587.969,191.482 586.000,195.000" stroke-width="3.865" stroke="black" fill="none" stroke-linecap="round"></path><path d="M 586.000,195.000 C 583.369,198.937 583.333,198.734 580.000,202.000" stroke-width="4.241" stroke="black" fill="none" stroke-linecap="round"></path><path d="M 580.000,202.000 C 577.727,204.318 577.869,203.937 575.000,205.000" stroke-width="4.631" stroke="black" fill="none" stroke-linecap="round"></path><path d="M 575.000,205.000 C 571.500,205.000 571.727,205.818 568.000,205.000" stroke-width="4.671" stroke="black" fill="none" stroke-linecap="round"></path><path d="M 558.000,203.000 C 560.500,203.500 560.500,203.500 563.000,204.000" stroke-width="5.539" stroke="black" fill="none" stroke-linecap="round"></path></svg>